<mxfile host="Electron" agent="Mozilla/5.0 (Macintosh; Intel Mac OS X 10_15_7) AppleWebKit/537.36 (KHTML, like Gecko) draw.io/26.2.2 Chrome/134.0.6998.178 Electron/35.1.2 Safari/537.36" version="26.2.2">
  <diagram name="Page-1" id="N88Dc6YNFrtdGZEufL_f">
    <mxGraphModel dx="978" dy="751" grid="1" gridSize="10" guides="1" tooltips="1" connect="1" arrows="1" fold="1" page="1" pageScale="1" pageWidth="850" pageHeight="1100" math="0" shadow="0">
      <root>
        <mxCell id="0" />
        <mxCell id="1" parent="0" />
        <mxCell id="f247F0PFwi-oGseYm4q1-22" style="edgeStyle=orthogonalEdgeStyle;rounded=0;orthogonalLoop=1;jettySize=auto;html=1;" edge="1" parent="1" source="f247F0PFwi-oGseYm4q1-1" target="f247F0PFwi-oGseYm4q1-2">
          <mxGeometry relative="1" as="geometry" />
        </mxCell>
        <mxCell id="f247F0PFwi-oGseYm4q1-1" value="Start" style="ellipse;whiteSpace=wrap;html=1;" vertex="1" parent="1">
          <mxGeometry x="100" y="80" width="120" height="50" as="geometry" />
        </mxCell>
        <mxCell id="f247F0PFwi-oGseYm4q1-21" style="edgeStyle=orthogonalEdgeStyle;rounded=0;orthogonalLoop=1;jettySize=auto;html=1;" edge="1" parent="1" source="f247F0PFwi-oGseYm4q1-2" target="f247F0PFwi-oGseYm4q1-3">
          <mxGeometry relative="1" as="geometry" />
        </mxCell>
        <mxCell id="f247F0PFwi-oGseYm4q1-2" value="Generate Random Number(1,100)" style="rounded=0;whiteSpace=wrap;html=1;" vertex="1" parent="1">
          <mxGeometry x="100" y="170" width="120" height="60" as="geometry" />
        </mxCell>
        <mxCell id="f247F0PFwi-oGseYm4q1-20" style="edgeStyle=orthogonalEdgeStyle;rounded=0;orthogonalLoop=1;jettySize=auto;html=1;" edge="1" parent="1" source="f247F0PFwi-oGseYm4q1-3" target="f247F0PFwi-oGseYm4q1-5">
          <mxGeometry relative="1" as="geometry" />
        </mxCell>
        <mxCell id="f247F0PFwi-oGseYm4q1-3" value="Initialize Guess = 0" style="rounded=0;whiteSpace=wrap;html=1;" vertex="1" parent="1">
          <mxGeometry x="100" y="260" width="120" height="60" as="geometry" />
        </mxCell>
        <mxCell id="f247F0PFwi-oGseYm4q1-24" style="edgeStyle=orthogonalEdgeStyle;rounded=0;orthogonalLoop=1;jettySize=auto;html=1;" edge="1" parent="1" source="f247F0PFwi-oGseYm4q1-5" target="f247F0PFwi-oGseYm4q1-23">
          <mxGeometry relative="1" as="geometry" />
        </mxCell>
        <mxCell id="f247F0PFwi-oGseYm4q1-5" value="Input Guess" style="shape=parallelogram;perimeter=parallelogramPerimeter;whiteSpace=wrap;html=1;fixedSize=1;" vertex="1" parent="1">
          <mxGeometry x="100" y="370" width="120" height="60" as="geometry" />
        </mxCell>
        <mxCell id="f247F0PFwi-oGseYm4q1-11" style="edgeStyle=orthogonalEdgeStyle;rounded=0;orthogonalLoop=1;jettySize=auto;html=1;" edge="1" parent="1" source="f247F0PFwi-oGseYm4q1-9" target="f247F0PFwi-oGseYm4q1-10">
          <mxGeometry relative="1" as="geometry" />
        </mxCell>
        <mxCell id="f247F0PFwi-oGseYm4q1-16" value="" style="edgeStyle=orthogonalEdgeStyle;rounded=0;orthogonalLoop=1;jettySize=auto;html=1;" edge="1" parent="1" source="f247F0PFwi-oGseYm4q1-9" target="f247F0PFwi-oGseYm4q1-15">
          <mxGeometry relative="1" as="geometry" />
        </mxCell>
        <mxCell id="f247F0PFwi-oGseYm4q1-31" style="edgeStyle=orthogonalEdgeStyle;rounded=0;orthogonalLoop=1;jettySize=auto;html=1;" edge="1" parent="1" source="f247F0PFwi-oGseYm4q1-9">
          <mxGeometry relative="1" as="geometry">
            <mxPoint x="160" y="340" as="targetPoint" />
            <Array as="points">
              <mxPoint x="525" y="340" />
            </Array>
          </mxGeometry>
        </mxCell>
        <mxCell id="f247F0PFwi-oGseYm4q1-9" value="If Guess &amp;gt; Random Number" style="rhombus;whiteSpace=wrap;html=1;" vertex="1" parent="1">
          <mxGeometry x="470" y="450" width="110" height="110" as="geometry" />
        </mxCell>
        <mxCell id="f247F0PFwi-oGseYm4q1-10" value="Output &quot;Too HIgh&quot;" style="shape=parallelogram;perimeter=parallelogramPerimeter;whiteSpace=wrap;html=1;fixedSize=1;" vertex="1" parent="1">
          <mxGeometry x="670" y="475" width="120" height="60" as="geometry" />
        </mxCell>
        <mxCell id="f247F0PFwi-oGseYm4q1-12" value="Yes" style="text;html=1;align=center;verticalAlign=middle;resizable=0;points=[];autosize=1;strokeColor=none;fillColor=none;" vertex="1" parent="1">
          <mxGeometry x="590" y="475" width="40" height="30" as="geometry" />
        </mxCell>
        <mxCell id="f247F0PFwi-oGseYm4q1-15" value="Output &quot;Too Low&quot;" style="shape=parallelogram;perimeter=parallelogramPerimeter;whiteSpace=wrap;html=1;fixedSize=1;" vertex="1" parent="1">
          <mxGeometry x="465" y="610" width="120" height="60" as="geometry" />
        </mxCell>
        <mxCell id="f247F0PFwi-oGseYm4q1-17" value="No" style="text;html=1;align=center;verticalAlign=middle;resizable=0;points=[];autosize=1;strokeColor=none;fillColor=none;" vertex="1" parent="1">
          <mxGeometry x="480" y="570" width="40" height="30" as="geometry" />
        </mxCell>
        <mxCell id="f247F0PFwi-oGseYm4q1-25" style="edgeStyle=orthogonalEdgeStyle;rounded=0;orthogonalLoop=1;jettySize=auto;html=1;" edge="1" parent="1" source="f247F0PFwi-oGseYm4q1-23" target="f247F0PFwi-oGseYm4q1-9">
          <mxGeometry relative="1" as="geometry">
            <mxPoint x="300" y="505" as="targetPoint" />
          </mxGeometry>
        </mxCell>
        <mxCell id="f247F0PFwi-oGseYm4q1-28" style="edgeStyle=orthogonalEdgeStyle;rounded=0;orthogonalLoop=1;jettySize=auto;html=1;" edge="1" parent="1" source="f247F0PFwi-oGseYm4q1-23" target="f247F0PFwi-oGseYm4q1-27">
          <mxGeometry relative="1" as="geometry" />
        </mxCell>
        <mxCell id="f247F0PFwi-oGseYm4q1-23" value="If Guess = Random Number" style="rhombus;whiteSpace=wrap;html=1;" vertex="1" parent="1">
          <mxGeometry x="100" y="450" width="120" height="110" as="geometry" />
        </mxCell>
        <mxCell id="f247F0PFwi-oGseYm4q1-26" value="No" style="text;html=1;align=center;verticalAlign=middle;resizable=0;points=[];autosize=1;strokeColor=none;fillColor=none;" vertex="1" parent="1">
          <mxGeometry x="300" y="475" width="40" height="30" as="geometry" />
        </mxCell>
        <mxCell id="f247F0PFwi-oGseYm4q1-34" style="edgeStyle=orthogonalEdgeStyle;rounded=0;orthogonalLoop=1;jettySize=auto;html=1;" edge="1" parent="1" source="f247F0PFwi-oGseYm4q1-27" target="f247F0PFwi-oGseYm4q1-33">
          <mxGeometry relative="1" as="geometry" />
        </mxCell>
        <mxCell id="f247F0PFwi-oGseYm4q1-27" value="Output &quot;Correct&quot;" style="shape=parallelogram;perimeter=parallelogramPerimeter;whiteSpace=wrap;html=1;fixedSize=1;" vertex="1" parent="1">
          <mxGeometry x="100" y="600" width="120" height="60" as="geometry" />
        </mxCell>
        <mxCell id="f247F0PFwi-oGseYm4q1-29" value="Yes" style="text;html=1;align=center;verticalAlign=middle;resizable=0;points=[];autosize=1;strokeColor=none;fillColor=none;" vertex="1" parent="1">
          <mxGeometry x="120" y="560" width="40" height="30" as="geometry" />
        </mxCell>
        <mxCell id="f247F0PFwi-oGseYm4q1-33" value="Stop" style="ellipse;whiteSpace=wrap;html=1;" vertex="1" parent="1">
          <mxGeometry x="100" y="700" width="120" height="60" as="geometry" />
        </mxCell>
      </root>
    </mxGraphModel>
  </diagram>
</mxfile>
